<svg xmlns="http://www.w3.org/2000/svg" xmlns:xlink="http://www.w3.org/1999/xlink" width="1440" height="1024" viewBox="0 0 1440 1024">
    <defs>
        <path id="a" d="M0 0h1440v1024H0z"/>
    </defs>
    <g fill="none" fill-rule="evenodd">
        <mask id="b" fill="#fff">
            <use xlink:href="#a"/>
        </mask>
        <use fill="#FFB600" fill-rule="nonzero" xlink:href="#a"/>
        <path fill="#FAFAFA" fill-opacity=".16" d="M1029.05-546l-1.807 3.015-1.205-3.015-314.854 303.435L403-545.722H3.966L-324-224.429v703.067L709.377 1494 1763 475.299V-220.07l-338.946-325.653L1029.05-546zm43.958 163.524h299.58l1.53 1.526-246.506 550.474-311.494-305.438 256.89-246.562zM655.885 1231.608l-236.883-232.91 218.375-503.09 241.625 235.149-223.117 500.85zM524.907 390.756L306.362 891.184 43.907 630.152 400.49 268.184l124.416 122.572zM944.796 586.45l-455.18-441.294 121.5-280.706L758.104 7.2v-.047l311.512 303.937-124.82 275.36zM61.794-390.536h298.3l143.722 142.35-122.281 282.65L.815-328.762l60.979-61.774zM-161.23-159.524l53.222-53.13 406.778 378.02-361.072 357.98-98.928-96.125v-586.745zm1761.632 585.163l-750 720.535 321.844-728.298 1.386 1.394-.462-3.486 33.82-76.61H1600.402v86.465zm-.812-249.93h-325l205.801-460 119.2 116.276V175.71z" mask="url(#b)"/>
    </g>
</svg>
